<mxfile host="app.diagrams.net" modified="2021-12-03T04:38:44.906Z" agent="5.0 (Windows NT 10.0; Win64; x64) AppleWebKit/537.36 (KHTML, like Gecko) Chrome/96.0.4664.55 Safari/537.36 Edg/96.0.1054.41" etag="jtYMMmIncZ43LIgVcUCp" version="15.8.6" type="github">
  <diagram id="6KWxz9jJ0aF5B5UX6o4N" name="Page-1">
    <mxGraphModel dx="1038" dy="600" grid="1" gridSize="10" guides="1" tooltips="1" connect="1" arrows="1" fold="1" page="1" pageScale="1" pageWidth="850" pageHeight="1100" math="0" shadow="0">
      <root>
        <mxCell id="0" />
        <mxCell id="1" parent="0" />
        <mxCell id="SEOm2rfOzatGShbC_vHu-5" value="" style="edgeStyle=orthogonalEdgeStyle;rounded=0;orthogonalLoop=1;jettySize=auto;html=1;" edge="1" parent="1" target="SEOm2rfOzatGShbC_vHu-4">
          <mxGeometry relative="1" as="geometry">
            <mxPoint x="425" y="160" as="sourcePoint" />
          </mxGeometry>
        </mxCell>
        <mxCell id="SEOm2rfOzatGShbC_vHu-4" value="" style="whiteSpace=wrap;html=1;" vertex="1" parent="1">
          <mxGeometry x="365" y="250" width="120" height="60" as="geometry" />
        </mxCell>
        <mxCell id="SEOm2rfOzatGShbC_vHu-6" value="Directories + subscriptions" style="swimlane;childLayout=stackLayout;horizontal=1;startSize=30;horizontalStack=0;rounded=1;fontSize=14;fontStyle=0;strokeWidth=2;resizeParent=0;resizeLast=1;shadow=0;dashed=0;align=center;" vertex="1" parent="1">
          <mxGeometry x="340" y="50" width="230" height="80" as="geometry" />
        </mxCell>
        <mxCell id="SEOm2rfOzatGShbC_vHu-7" value="Azure Active Directory&#xa;Azure AD B2C" style="align=left;strokeColor=none;fillColor=none;spacingLeft=4;fontSize=12;verticalAlign=top;resizable=0;rotatable=0;part=1;" vertex="1" parent="SEOm2rfOzatGShbC_vHu-6">
          <mxGeometry y="30" width="230" height="50" as="geometry" />
        </mxCell>
        <mxCell id="SEOm2rfOzatGShbC_vHu-16" value="Resources" style="swimlane;childLayout=stackLayout;horizontal=1;startSize=30;horizontalStack=0;rounded=1;fontSize=14;fontStyle=0;strokeWidth=2;resizeParent=0;resizeLast=1;shadow=0;dashed=0;align=center;" vertex="1" parent="1">
          <mxGeometry x="110" y="200" width="160" height="60" as="geometry" />
        </mxCell>
        <mxCell id="SEOm2rfOzatGShbC_vHu-17" value="B2C Tenant" style="align=left;strokeColor=none;fillColor=none;spacingLeft=4;fontSize=12;verticalAlign=top;resizable=0;rotatable=0;part=1;" vertex="1" parent="SEOm2rfOzatGShbC_vHu-16">
          <mxGeometry y="30" width="160" height="30" as="geometry" />
        </mxCell>
      </root>
    </mxGraphModel>
  </diagram>
</mxfile>
